<?xml version="1.0" encoding="UTF-8"?>
<svg xmlns="http://www.w3.org/2000/svg" xmlns:xlink="http://www.w3.org/1999/xlink" width="160pt" height="60pt" viewBox="0 0 160 60" version="1.1">
<g id="surface0">
<path style=" stroke:none;fill-rule:nonzero;fill:rgb(0%,0%,60%);fill-opacity:1;" d="M 44.441406 30.34375 C 44.574219 30.277344 44.675781 30 44.675781 30 C 44.675781 30 49.371094 19.832031 44.503906 13.652344 C 39.964844 7.894531 23.597656 11.699219 12 26.679688 C 11.890625 26.828125 13.3125 32.113281 22.429688 36.519531 C 22.8125 36.703125 22.890625 36.527344 22.90625 36.492188 C 22.980469 36.296875 22.683594 36.117188 22.683594 36.117188 C 22.683594 36.117188 18.910156 34.089844 19.554688 28.992188 C 20.195312 23.894531 25.636719 17.441406 29.828125 15.007812 C 34.019531 12.570312 39.992188 11.769531 43.328125 14.824219 C 47.902344 19.007812 45.175781 27.246094 44.226562 29.789062 C 44.03125 30.320312 44.234375 30.445312 44.441406 30.34375 "/>
<path style=" stroke:none;fill-rule:nonzero;fill:rgb(0%,0%,60%);fill-opacity:1;" d="M 8.777344 32.214844 C 8.644531 32.28125 8.542969 32.558594 8.542969 32.558594 C 8.542969 32.558594 3.847656 42.726562 8.714844 48.90625 C 13.253906 54.664062 29.621094 50.855469 41.214844 35.878906 C 41.328125 35.730469 39.902344 30.445312 30.789062 26.039062 C 30.40625 25.855469 30.324219 26.03125 30.3125 26.066406 C 30.238281 26.261719 30.53125 26.441406 30.53125 26.441406 C 30.53125 26.441406 34.308594 28.46875 33.664062 33.566406 C 33.019531 38.664062 27.578125 45.117188 23.390625 47.550781 C 19.199219 49.988281 13.226562 50.789062 9.886719 47.734375 C 5.316406 43.550781 8.039062 35.3125 8.992188 32.769531 C 9.1875 32.238281 8.984375 32.113281 8.777344 32.214844 "/>
<path style=" stroke:none;fill-rule:nonzero;fill:rgb(0%,0%,60%);fill-opacity:1;" d="M 27.546875 49.109375 C 27.609375 49.246094 27.890625 49.34375 27.890625 49.34375 C 27.890625 49.34375 38.058594 54.042969 44.234375 49.171875 C 49.992188 44.636719 46.1875 28.269531 31.207031 16.671875 C 31.0625 16.558594 25.777344 17.984375 21.371094 27.097656 C 21.183594 27.480469 21.359375 27.5625 21.394531 27.574219 C 21.59375 27.652344 21.773438 27.355469 21.773438 27.355469 C 21.773438 27.355469 23.800781 23.578125 28.894531 24.222656 C 33.992188 24.867188 40.445312 30.308594 42.878906 34.5 C 45.316406 38.6875 46.117188 44.660156 43.0625 48 C 38.882812 52.570312 30.640625 49.847656 28.097656 48.898438 C 27.570312 48.699219 27.441406 48.902344 27.546875 49.109375 "/>
<path style=" stroke:none;fill-rule:nonzero;fill:rgb(0%,0%,60%);fill-opacity:1;" d="M 25.671875 13.449219 C 25.609375 13.3125 25.328125 13.214844 25.328125 13.214844 C 25.328125 13.214844 15.160156 8.519531 8.984375 13.386719 C 3.226562 17.925781 7.03125 34.289062 22.007812 45.886719 C 22.15625 46 27.441406 44.574219 31.847656 35.460938 C 32.035156 35.078125 31.855469 34.996094 31.824219 34.984375 C 31.625 34.910156 31.445312 35.203125 31.445312 35.203125 C 31.445312 35.203125 29.417969 38.980469 24.324219 38.335938 C 19.226562 37.691406 12.773438 32.25 10.335938 28.0625 C 7.902344 23.871094 7.097656 17.898438 10.15625 14.558594 C 14.335938 9.988281 22.578125 12.710938 25.121094 13.660156 C 25.648438 13.859375 25.777344 13.65625 25.671875 13.449219 "/>
<path style=" stroke:none;fill-rule:nonzero;fill:rgb(0%,0%,60%);fill-opacity:1;" d="M 69.128906 38.15625 C 68.484375 38.15625 62.976562 38.140625 62.976562 38.140625 C 62.976562 38.140625 62.316406 38.222656 62.691406 37.410156 L 65.773438 29.953125 C 65.773438 29.953125 66.011719 29.257812 66.335938 29.96875 C 66.65625 30.683594 69.453125 37.53125 69.453125 37.53125 C 69.453125 37.53125 69.773438 38.15625 69.128906 38.15625 Z M 85.175781 51.050781 C 84.175781 50.238281 83.449219 48.46875 83.449219 48.46875 C 83.449219 48.46875 67.039062 12.027344 66.734375 11.386719 C 66.378906 10.640625 65.9375 11.320312 65.9375 11.320312 C 52.53125 40.332031 49.898438 45.925781 48.824219 47.9375 C 47.933594 49.597656 46.707031 51.105469 46.707031 51.105469 L 59.328125 51.097656 C 57.691406 48.84375 59.726562 45.667969 59.726562 45.667969 C 59.726562 45.667969 72.597656 45.632812 72.636719 45.6875 C 74.875 48.800781 73.167969 51.050781 73.167969 51.050781 L 85.175781 51.050781 L 85.175781 51.050781 Z M 85.175781 51.050781 "/>
<path style=" stroke:none;fill-rule:nonzero;fill:rgb(0%,0%,60%);fill-opacity:1;" d="M 101.457031 26.574219 L 118.933594 26.574219 L 118.933594 44.398438 C 118.933594 44.398438 119.195312 45.078125 119.664062 45.253906 C 120.019531 45.390625 119.769531 45.675781 119.351562 46.074219 C 118.644531 46.746094 114.601562 49.878906 108.515625 51.175781 C 102.984375 52.355469 94.816406 50.480469 90.199219 46.074219 C 85.585938 41.675781 83.683594 36.433594 83.699219 30.347656 C 83.710938 24.273438 86.285156 18.675781 92.648438 14.058594 C 99.007812 9.445312 105.078125 10.351562 110.332031 11.332031 C 111.679688 11.582031 112.121094 11.496094 112.5 11.191406 C 113.289062 10.5625 113.128906 10.914062 113.128906 11.542969 L 113.128906 22.378906 C 113.128906 22.378906 113.132812 22.730469 112.640625 22.378906 C 111.644531 21.667969 109.503906 19.660156 103.621094 19.652344 C 98.480469 19.644531 92.722656 24.492188 92.714844 30.488281 C 92.714844 36.835938 97.121094 42.582031 103.621094 42.582031 C 110.105469 42.582031 109.859375 41.652344 109.914062 41.042969 C 109.917969 41.027344 109.914062 35.101562 109.914062 35.101562 L 101.667969 35.101562 C 101.667969 35.101562 100.851562 35.003906 99.777344 36.078125 C 99.773438 36.082031 99.777344 25.734375 99.777344 25.734375 C 99.777344 25.734375 100.660156 26.597656 101.457031 26.574219 Z M 101.457031 26.574219 "/>
<path style=" stroke:none;fill-rule:nonzero;fill:rgb(0%,0%,60%);fill-opacity:1;" d="M 123.992188 11.539062 L 134.417969 11.539062 C 134.417969 11.539062 133.65625 12.199219 133.625 13.222656 C 133.609375 13.730469 133.625 38.070312 133.625 38.070312 C 133.625 38.070312 133.523438 42.8125 138.582031 42.851562 C 141.191406 42.871094 143.234375 40.929688 143.300781 38.050781 C 143.347656 36.015625 143.257812 13.089844 143.257812 13.089844 C 143.242188 12.085938 142.40625 11.589844 142.398438 11.570312 C 142.390625 11.550781 152.871094 11.570312 152.871094 11.570312 C 152.871094 11.570312 152.035156 12.222656 152.035156 13.292969 C 152.035156 14.363281 152.023438 37.191406 152.023438 38.050781 C 152.023438 38.835938 151.34375 43.550781 149.230469 46.339844 C 147.277344 48.929688 144.886719 51.664062 138.582031 51.664062 C 132.398438 51.664062 129.714844 48.949219 127.5 46.261719 C 125.253906 43.53125 124.855469 38.792969 124.816406 38 C 124.78125 37.207031 124.816406 13.222656 124.816406 13.222656 C 124.816406 13.222656 124.984375 12.308594 123.992188 11.539062 Z M 123.992188 11.539062 "/>
</g>
</svg>
